<?xml version="1.0" standalone="no"?>
<!DOCTYPE svg PUBLIC "-//W3C//DTD SVG 20010904//EN"
 "http://www.w3.org/TR/2001/REC-SVG-20010904/DTD/svg10.dtd">
<svg version="1.0" xmlns="http://www.w3.org/2000/svg"
 width="137.000000pt" height="134.000000pt" viewBox="0 0 137.000000 134.000000"
 preserveAspectRatio="xMidYMid meet">

<g transform="translate(0.000000,134.000000) scale(0.100000,-0.100000)"
fill="#000000" stroke="none">
<path d="M871 1225 c-109 -24 -221 -92 -292 -176 -98 -114 -145 -161 -175
-174 l-32 -13 14 -74 c7 -40 23 -98 34 -128 11 -30 22 -83 23 -118 2 -34 6
-64 9 -67 7 -7 110 15 126 27 7 6 12 33 12 63 0 38 6 61 23 85 20 30 80 80 64
53 -11 -18 57 -60 136 -85 38 -11 65 -24 60 -27 -107 -92 -133 -116 -133 -128
0 -8 18 -38 41 -68 38 -51 40 -56 30 -91 -6 -21 -9 -39 -8 -40 6 -6 87 19 87
27 0 5 -4 9 -10 9 -5 0 -10 14 -10 30 0 17 -4 30 -8 30 -14 0 -46 80 -36 89 5
5 53 22 106 39 l97 30 58 -65 c32 -35 61 -74 66 -85 10 -29 -1 -59 -32 -85
l-26 -22 58 -1 c54 0 58 1 52 20 -4 12 -2 27 4 34 8 9 -1 33 -30 90 -22 42
-44 90 -49 105 -13 48 -4 52 93 40 l87 -12 0 -163 c0 -139 2 -164 15 -164 13
0 15 62 15 500 0 438 -2 500 -15 500 -12 0 -15 -15 -15 -75 l0 -75 -42 26
c-23 15 -65 45 -92 66 -102 81 -184 101 -305 73z"/>
</g>
</svg>
