<?xml version="1.0" standalone="no"?>
<!DOCTYPE svg PUBLIC "-//W3C//DTD SVG 20010904//EN"
 "http://www.w3.org/TR/2001/REC-SVG-20010904/DTD/svg10.dtd">
<svg version="1.0" xmlns="http://www.w3.org/2000/svg"
 width="79.000000pt" height="74.000000pt" viewBox="0 0 79.000000 74.000000"
 preserveAspectRatio="xMidYMid meet">

<g transform="translate(0.000000,74.000000) scale(0.100000,-0.100000)"
fill="#000000" stroke="none">
<path d="M334 650 c-22 -8 -39 -38 -29 -48 3 -4 8 4 12 16 4 18 8 20 25 11 11
-6 17 -13 14 -16 -3 -3 -1 -14 4 -24 7 -13 6 -22 -6 -34 -22 -22 -47 -15 -55
15 -5 17 -7 19 -8 7 -1 -14 -5 -16 -20 -7 -24 12 -27 8 -36 -51 -5 -37 -3 -55
14 -88 24 -47 30 -49 54 -21 9 11 12 20 7 20 -6 0 -13 -7 -16 -15 -7 -18 -24
-10 -24 11 0 9 -7 22 -16 31 -17 17 -11 72 10 85 7 5 6 8 -3 8 -8 0 -12 3 -8
6 3 3 22 -2 42 -12 31 -14 40 -15 61 -4 13 7 24 18 24 23 0 11 60 -54 60 -65
0 -5 5 -8 10 -8 6 0 3 12 -6 26 -15 22 -15 27 -3 35 12 8 12 9 -1 7 -19 -3
-71 31 -69 46 3 24 -1 37 -11 31 -5 -3 -10 -2 -10 4 0 5 6 12 13 14 6 3 8 5 2
6 -5 0 -19 -4 -31 -9z"/>
<path d="M146 624 c-14 -15 -26 -35 -26 -45 0 -10 -4 -21 -10 -24 -13 -8 -13
-1 4 40 8 19 11 35 6 35 -16 0 -31 -40 -28 -75 l3 -34 33 27 c18 15 34 34 36
42 1 8 8 25 14 38 17 30 1 28 -32 -4z"/>
<path d="M600 642 c0 -4 16 -23 35 -42 41 -39 47 -26 9 19 -25 30 -44 40 -44
23z"/>
<path d="M665 615 c4 -11 10 -31 13 -45 l5 -25 -25 23 c-30 28 -48 29 -23 2
10 -12 19 -29 20 -40 2 -31 57 -103 66 -88 12 18 11 116 -1 123 -6 4 -10 -14
-11 -47 0 -29 -3 -46 -6 -38 -3 8 -15 26 -27 40 -11 14 -14 19 -6 13 8 -7 18
-13 23 -13 16 0 0 81 -19 99 -16 15 -16 15 -9 -4z"/>
<path d="M405 593 c11 -3 26 -10 33 -15 8 -7 12 -7 12 0 0 12 -25 22 -48 21
-13 -1 -12 -3 3 -6z"/>
<path d="M463 559 c-1 -13 4 -19 15 -17 13 2 17 -4 15 -24 -2 -28 11 -38 20
-15 3 6 14 -10 26 -37 15 -34 18 -53 11 -60 -7 -7 -10 -6 -10 2 0 7 -7 12 -15
12 -15 0 -40 38 -31 48 3 3 6 1 6 -5 0 -6 7 -13 15 -17 8 -3 15 -1 15 4 0 12
-55 41 -63 34 -3 -3 -11 -6 -19 -8 -20 -3 -53 -24 -47 -30 2 -3 18 1 33 9 33
18 46 19 46 5 0 -5 -9 -10 -20 -10 -11 0 -20 -5 -20 -11 0 -5 -6 -7 -12 -3
-10 5 -10 4 -2 -5 9 -10 17 -10 34 -1 17 9 25 9 34 -1 8 -9 7 -11 -6 -6 -15 5
-18 1 -17 -26 1 -21 3 -25 6 -12 8 29 23 35 49 18 13 -8 27 -12 33 -9 5 3 12
0 14 -6 3 -7 6 -4 6 8 1 11 -6 29 -14 40 -8 10 -15 26 -15 35 0 18 -41 76 -67
94 -16 12 -19 11 -20 -6z"/>
<path d="M56 548 c-9 -34 -7 -63 4 -94 10 -26 11 -26 26 -8 15 19 15 19 9 -1
-4 -11 -10 -28 -12 -38 -4 -13 -11 -5 -29 30 -21 44 -23 46 -24 19 0 -28 37
-106 51 -106 10 0 32 88 26 105 -4 8 3 32 14 52 l21 38 -36 -39 -35 -39 6 52
c6 52 -9 73 -21 29z"/>
<path d="M267 527 c-7 -18 21 -74 39 -81 8 -3 4 10 -11 34 -14 22 -21 40 -15
40 5 0 10 5 10 10 0 15 -17 12 -23 -3z"/>
<path d="M380 531 c0 -6 4 -12 8 -15 5 -3 9 1 9 9 0 8 -4 15 -9 15 -4 0 -8 -4
-8 -9z"/>
<path d="M366 493 c-6 -14 -5 -15 5 -6 7 7 10 15 7 18 -3 3 -9 -2 -12 -12z"/>
<path d="M738 449 c-10 -17 -18 -37 -18 -45 0 -8 -4 -14 -10 -14 -5 0 -10 8
-10 18 0 10 -7 27 -15 38 -11 14 -14 15 -15 4 0 -24 26 -91 36 -93 12 -3 56
88 52 107 -2 11 -8 6 -20 -15z"/>
<path d="M330 448 c0 -20 15 -24 25 -8 9 14 28 12 22 -2 -2 -7 -10 -12 -17
-10 -8 2 -9 -5 -5 -19 6 -18 4 -21 -9 -16 -9 4 -16 2 -16 -3 0 -6 -5 -10 -11
-10 -5 0 -7 6 -3 13 5 8 2 8 -9 -2 -9 -7 -17 -19 -17 -25 0 -6 4 -5 9 3 7 11
9 11 14 0 4 -10 8 -11 14 -3 11 15 43 25 43 14 0 -6 -9 -15 -20 -22 -11 -7
-20 -20 -20 -28 0 -9 9 -4 23 14 16 20 26 26 31 17 4 -6 12 -9 17 -6 5 3 6 -2
2 -11 -5 -13 -3 -15 7 -9 17 11 61 11 81 1 7 -4 3 2 -10 14 -16 13 -28 17 -34
11 -5 -5 -16 -7 -24 -4 -11 5 -11 9 4 27 10 11 14 18 9 14 -5 -4 -17 -3 -28 3
-18 9 -18 8 -8 -10 14 -28 -1 -27 -19 1 -10 16 -10 23 -2 26 6 2 11 14 11 26
0 19 -5 23 -30 22 -21 -1 -30 -6 -30 -18z"/>
<path d="M109 365 c-1 -16 -1 -41 0 -55 2 -22 -1 -20 -28 17 -41 56 -52 61
-34 13 9 -23 29 -50 44 -61 l27 -19 7 49 c4 30 2 57 -4 68 -9 16 -11 14 -12
-12z"/>
<path d="M509 377 c22 -11 30 -35 9 -29 -5 1 -6 -2 -3 -8 5 -8 13 -6 26 6 11
10 19 12 19 6 0 -7 5 -12 10 -12 16 0 12 27 -5 34 -8 3 -15 0 -15 -6 0 -6 -8
-4 -18 5 -10 10 -25 17 -33 17 -8 0 -3 -6 10 -13z"/>
<path d="M660 326 c0 -36 4 -66 8 -66 16 0 70 66 76 94 7 28 6 27 -28 -13
l-36 -43 0 40 c0 23 -4 44 -10 47 -6 4 -10 -18 -10 -59z"/>
<path d="M283 331 c0 -11 5 -19 10 -18 6 1 13 -10 18 -25 4 -16 3 -28 -2 -28
-12 0 -11 -37 1 -45 16 -10 42 16 37 36 -3 10 1 23 9 30 15 12 9 30 -9 28 -26
-3 -36 2 -42 21 -8 26 -24 26 -22 1z m67 -47 c0 -2 -7 -4 -15 -4 -8 0 -15 4
-15 10 0 5 7 7 15 4 8 -4 15 -8 15 -10z"/>
<path d="M366 335 c-3 -9 0 -15 9 -15 8 0 15 -6 15 -14 0 -18 17 -30 24 -17 4
5 -1 16 -9 24 -8 9 -15 20 -15 26 0 16 -17 13 -24 -4z"/>
<path d="M420 316 c0 -2 9 -6 20 -9 11 -3 18 -1 14 4 -5 9 -34 13 -34 5z"/>
<path d="M498 313 c7 -3 16 -2 19 1 4 3 -2 6 -13 5 -11 0 -14 -3 -6 -6z"/>
<path d="M565 310 c-3 -5 -3 -10 1 -10 4 0 -4 -12 -18 -27 -15 -16 -32 -41
-37 -56 -11 -28 -12 -28 -69 -21 -31 4 -60 12 -64 18 -5 7 -8 5 -8 -6 0 -14
-6 -16 -30 -12 -16 4 -42 3 -57 -1 -26 -7 -25 -8 23 -20 28 -8 88 -13 135 -12
l84 2 12 49 c7 27 22 59 33 71 13 14 17 25 11 29 -5 4 -12 2 -16 -4z"/>
<path d="M525 283 l-17 -28 23 22 c12 12 20 25 17 28 -3 3 -13 -7 -23 -22z"/>
<path d="M635 290 c-4 -11 -24 -37 -46 -57 -21 -20 -39 -41 -39 -46 0 -6 -7
-18 -16 -28 -14 -16 -13 -18 15 -24 43 -9 85 2 111 30 l23 25 -46 -16 c-26 -9
-51 -14 -55 -12 -5 1 -1 21 10 43 18 40 18 40 13 8 -6 -40 13 -44 62 -13 29
18 70 76 60 86 -2 2 -27 -19 -55 -46 -29 -28 -52 -47 -52 -41 0 5 4 12 9 15
11 7 26 85 18 92 -3 3 -8 -4 -12 -16z"/>
<path d="M140 278 c0 -15 5 -39 10 -53 9 -25 7 -24 -36 14 -51 45 -67 47 -40
6 18 -28 72 -65 95 -65 16 0 7 59 -14 100 l-14 25 -1 -27z"/>
<path d="M382 250 c0 -14 2 -19 5 -12 2 6 2 18 0 25 -3 6 -5 1 -5 -13z"/>
<path d="M185 230 c4 -14 13 -35 21 -47 13 -21 13 -23 -3 -23 -10 1 -35 7 -55
14 -47 17 -49 3 -6 -24 32 -20 72 -25 101 -15 12 5 11 12 -5 44 -10 22 -28 47
-40 57 -20 19 -21 19 -13 -6z"/>
<path d="M230 120 c-46 -11 -60 -18 -47 -23 32 -12 95 -8 130 9 40 19 102 7
132 -26 10 -11 23 -20 29 -20 6 1 -5 14 -24 30 -38 33 -31 38 23 15 46 -19
108 -19 133 0 14 11 15 14 3 9 -10 -3 -37 0 -60 7 -67 18 -243 18 -319 -1z"/>
<path d="M325 85 c-16 -14 -25 -25 -20 -25 6 1 24 12 40 25 17 14 26 25 20 25
-5 -1 -23 -12 -40 -25z"/>
</g>
</svg>
